<svg xmlns="http://www.w3.org/2000/svg" viewBox="0 0 1280 800" font-family="'Source Sans 3', 'Inter', sans-serif">
  <defs>
    <pattern id="grain" x="0" y="0" width="160" height="160" patternUnits="userSpaceOnUse">
      <rect width="160" height="160" fill="#F4EFE6"/>
      <rect width="160" height="160" filter="url(#n)" opacity="0.04"/>
    </pattern>
    <filter id="n">
      <feTurbulence type="fractalNoise" baseFrequency="0.9" numOctaves="2" stitchTiles="stitch"/>
      <feColorMatrix values="0 0 0 0 0.12  0 0 0 0 0.10  0 0 0 0 0.09  1 0"/>
    </filter>
  </defs>

  <rect width="1280" height="800" fill="#F4EFE6"/>
  <rect width="1280" height="800" fill="url(#grain)"/>

  <!-- Sidebar -->
  <rect x="0" y="0" width="220" height="800" fill="#FBF7EE"/>
  <line x1="220" y1="0" x2="220" y2="800" stroke="#D8D2C4" stroke-width="1"/>
  <text x="24" y="40" font-family="'Fraunces', Georgia, serif" font-size="22" font-weight="600" fill="#2F3D26" letter-spacing="-0.5">FitOS</text>
  <text x="24" y="58" font-family="'Source Sans 3', sans-serif" font-size="11" fill="#8A8870">Leandro Pollola</text>

  <text x="24" y="100" font-family="'Fraunces', serif" font-style="italic" font-size="10" fill="#8A8870" letter-spacing="1">INICIO  ▾</text>
  <text x="36" y="129" font-family="'Source Sans 3', sans-serif" font-size="13" fill="#8A8870">Panel</text>
  <text x="36" y="160" font-family="'Source Sans 3', sans-serif" font-size="13" fill="#8A8870">Tendencias</text>

  <text x="24" y="200" font-family="'Fraunces', serif" font-style="italic" font-size="10" fill="#8A8870" letter-spacing="1">SALUD  ▾</text>
  <rect x="14" y="208" width="192" height="34" rx="8" fill="#D7DAC7"/>
  <rect x="14" y="208" width="3" height="34" rx="1.5" fill="#4E5D3F"/>
  <path d="M 31 226 L 41 222 L 36 230 L 41 232" stroke="#2F3D26" stroke-width="1.6" fill="none" stroke-linecap="round" stroke-linejoin="round"/>
  <text x="52" y="229" font-family="'Source Sans 3', sans-serif" font-size="13" font-weight="500" fill="#2F3D26">Actividad</text>
  <text x="36" y="278" font-family="'Source Sans 3', sans-serif" font-size="13" fill="#8A8870">Sueño</text>
  <text x="36" y="304" font-family="'Source Sans 3', sans-serif" font-size="13" fill="#8A8870">Balance Energético</text>

  <text x="24" y="344" font-family="'Fraunces', serif" font-style="italic" font-size="10" fill="#8A8870" letter-spacing="1">ENTRENAMIENTO  ▾</text>
  <text x="36" y="370" font-family="'Source Sans 3', sans-serif" font-size="13" fill="#8A8870">Plan de Dieta</text>
  <text x="36" y="396" font-family="'Source Sans 3', sans-serif" font-size="13" fill="#8A8870">Mediciones</text>
  <text x="36" y="422" font-family="'Source Sans 3', sans-serif" font-size="13" fill="#8A8870">Entrenamiento</text>

  <line x1="24" y1="700" x2="196" y2="700" stroke="#D8D2C4" stroke-width="1"/>
  <text x="36" y="724" font-family="'Source Sans 3', sans-serif" font-size="13" fill="#8A8870">Perfil y Ajustes</text>

  <!-- Main content -->
  <text x="250" y="48" font-family="'Fraunces', Georgia, serif" font-size="28" font-weight="600" fill="#2F3D26" letter-spacing="-0.6">Actividad</text>
  <text x="250" y="68" font-family="'Source Sans 3', sans-serif" font-size="12" fill="#8A8870">Resumen semanal · 23 sesiones · 3.770 kcal totales</text>

  <!-- Import buttons -->
  <g transform="translate(810, 36)">
    <rect x="0" y="0" width="130" height="32" rx="8" fill="#4E5D3F"/>
    <path d="M 16 12 L 16 20 M 12 16 L 20 16" stroke="#FBF7EE" stroke-width="1.6" stroke-linecap="round"/>
    <text x="76" y="20" text-anchor="middle" font-family="'Source Sans 3', sans-serif" font-size="12" font-weight="600" fill="#FBF7EE">Importar Apple Health</text>
  </g>
  <g transform="translate(950, 36)">
    <rect x="0" y="0" width="100" height="32" rx="8" fill="#FBF7EE" stroke="#4E5D3F"/>
    <text x="50" y="20" text-anchor="middle" font-family="'Source Sans 3', sans-serif" font-size="12" font-weight="600" fill="#4E5D3F">Importar CSV</text>
  </g>
  <g transform="translate(1060, 36)">
    <rect x="0" y="0" width="100" height="32" rx="8" fill="#FBF7EE" stroke="#D8D2C4"/>
    <text x="50" y="20" text-anchor="middle" font-family="'Source Sans 3', sans-serif" font-size="12" fill="#2F3D26">+ Nueva sesión</text>
  </g>
  <g transform="translate(1170, 36)">
    <rect x="0" y="0" width="80" height="32" rx="8" fill="#FBF7EE" stroke="#D8D2C4"/>
    <text x="40" y="20" text-anchor="middle" font-family="'Source Sans 3', sans-serif" font-size="12" fill="#2F3D26">15d ▾</text>
  </g>

  <!-- 4 KPI cards -->
  <rect x="250" y="90" width="148" height="90" rx="14" fill="#FBF7EE" stroke="#D8D2C4"/>
  <text x="264" y="112" font-family="'Fraunces', serif" font-style="italic" font-size="11" fill="#8A8870">Sesiones / semana</text>
  <text x="264" y="140" font-family="'Fraunces', Georgia, serif" font-size="22" font-weight="600" fill="#2F3D26">5.2</text>
  <path d="M 264 152 L 282 156 L 302 150 L 322 152 L 342 146 L 362 150 L 384 144" stroke="#4E5D3F" stroke-width="1.4" fill="none" stroke-linecap="round"/>
  <circle cx="384" cy="144" r="2" fill="#2F3D26" stroke="#FBF7EE" stroke-width="1.2"/>
  <text x="264" y="170" font-family="'Source Sans 3', sans-serif" font-size="10" fill="#4E5D3F">▲ +0.6 vs período</text>

  <rect x="408" y="90" width="148" height="90" rx="14" fill="#FBF7EE" stroke="#D8D2C4"/>
  <text x="422" y="112" font-family="'Fraunces', serif" font-style="italic" font-size="11" fill="#8A8870">Duración prom.</text>
  <text x="422" y="140" font-family="'Fraunces', Georgia, serif" font-size="22" font-weight="600" fill="#2F3D26">48 min</text>
  <path d="M 422 152 L 442 154 L 462 150 L 482 148 L 502 152 L 522 146 L 542 148" stroke="#4E5D3F" stroke-width="1.4" fill="none" stroke-linecap="round"/>
  <circle cx="542" cy="148" r="2" fill="#2F3D26" stroke="#FBF7EE" stroke-width="1.2"/>
  <text x="422" y="170" font-family="'Source Sans 3', sans-serif" font-size="10" fill="#4E5D3F">▲ +6% vs período</text>

  <rect x="566" y="90" width="148" height="90" rx="14" fill="#FBF7EE" stroke="#D8D2C4"/>
  <text x="580" y="112" font-family="'Fraunces', serif" font-style="italic" font-size="11" fill="#8A8870">Distancia / día</text>
  <text x="580" y="140" font-family="'Fraunces', Georgia, serif" font-size="22" font-weight="600" fill="#2F3D26">3.2 km</text>
  <path d="M 580 152 L 600 156 L 620 152 L 640 154 L 660 150 L 680 152 L 700 148" stroke="#4E5D3F" stroke-width="1.4" fill="none" stroke-linecap="round"/>
  <circle cx="700" cy="148" r="2" fill="#2F3D26" stroke="#FBF7EE" stroke-width="1.2"/>
  <text x="580" y="170" font-family="'Source Sans 3', sans-serif" font-size="10" fill="#4E5D3F">▲ +0.4 km</text>

  <rect x="724" y="90" width="148" height="90" rx="14" fill="#FBF7EE" stroke="#D8D2C4"/>
  <text x="738" y="112" font-family="'Fraunces', serif" font-style="italic" font-size="11" fill="#8A8870">Días activos</text>
  <text x="738" y="140" font-family="'Fraunces', Georgia, serif" font-size="22" font-weight="600" fill="#2F3D26">11/15</text>
  <text x="738" y="158" font-family="'Source Sans 3', sans-serif" font-size="10" fill="#8A8870">73% adherencia</text>
  <rect x="738" y="166" width="120" height="6" rx="3" fill="#E6E0D2"/>
  <rect x="738" y="166" width="88" height="6" rx="3" fill="#4E5D3F"/>

  <rect x="882" y="90" width="148" height="90" rx="14" fill="#FBF7EE" stroke="#D8D2C4"/>
  <text x="896" y="112" font-family="'Fraunces', serif" font-style="italic" font-size="11" fill="#8A8870">Calorías activas</text>
  <text x="896" y="140" font-family="'Fraunces', Georgia, serif" font-size="22" font-weight="600" fill="#2F3D26">487/día</text>
  <text x="896" y="158" font-family="'Source Sans 3', sans-serif" font-size="10" fill="#4E5D3F">✓ Sobre objetivo</text>
  <rect x="896" y="166" width="120" height="6" rx="3" fill="#E6E0D2"/>
  <rect x="896" y="166" width="98" height="6" rx="3" fill="#4E5D3F"/>

  <rect x="1040" y="90" width="232" height="90" rx="14" fill="#4E5D3F"/>
  <text x="1054" y="112" font-family="'Fraunces', serif" font-style="italic" font-size="11" fill="#D7DAC7">Consistencia semanal</text>
  <text x="1054" y="142" font-family="'Fraunces', Georgia, serif" font-size="24" font-weight="600" fill="#FBF7EE">5 / 5</text>
  <text x="1054" y="162" font-family="'Source Sans 3', sans-serif" font-size="11" fill="#D7DAC7">semanas perfectas</text>
  <text x="1054" y="178" font-family="'Source Sans 3', sans-serif" font-size="11" fill="#D7DAC7">última: 23 jun → 29 jun</text>

  <!-- Weekly chart card -->
  <rect x="250" y="196" width="620" height="240" rx="14" fill="#FBF7EE" stroke="#D8D2C4"/>
  <text x="270" y="222" font-family="'Fraunces', serif" font-style="italic" font-size="13" fill="#4E5D3F">Resumen semanal — kcal y duración</text>

  <g transform="translate(280, 240)">
    <line x1="0" y1="0" x2="0" y2="160" stroke="#D8D2C4" stroke-width="1"/>
    <line x1="0" y1="160" x2="570" y2="160" stroke="#D8D2C4" stroke-width="1"/>
    <line x1="0" y1="40" x2="570" y2="40" stroke="#E6E0D2" stroke-width="1" stroke-dasharray="3 3"/>
    <line x1="0" y1="100" x2="570" y2="100" stroke="#E6E0D2" stroke-width="1" stroke-dasharray="3 3"/>

    <!-- 15 bars -->
    <rect x="10" y="100" width="22" height="60" rx="3" fill="#4E5D3F" opacity="0.7"/>
    <rect x="48" y="80" width="22" height="80" rx="3" fill="#4E5D3F" opacity="0.7"/>
    <rect x="86" y="50" width="22" height="110" rx="3" fill="#C75B3B" opacity="0.7"/>
    <rect x="124" y="90" width="22" height="70" rx="3" fill="#4E5D3F" opacity="0.7"/>
    <rect x="162" y="60" width="22" height="100" rx="3" fill="#4E5D3F" opacity="0.7"/>
    <rect x="200" y="110" width="22" height="50" rx="3" fill="#4E5D3F" opacity="0.7"/>
    <rect x="238" y="40" width="22" height="120" rx="3" fill="#C75B3B" opacity="0.7"/>
    <rect x="276" y="70" width="22" height="90" rx="3" fill="#4E5D3F" opacity="0.7"/>
    <rect x="314" y="55" width="22" height="105" rx="3" fill="#4E5D3F" opacity="0.7"/>
    <rect x="352" y="85" width="22" height="75" rx="3" fill="#4E5D3F" opacity="0.7"/>
    <rect x="390" y="45" width="22" height="115" rx="3" fill="#C75B3B" opacity="0.7"/>
    <rect x="428" y="75" width="22" height="85" rx="3" fill="#4E5D3F" opacity="0.7"/>
    <rect x="466" y="60" width="22" height="100" rx="3" fill="#4E5D3F" opacity="0.7"/>
    <rect x="504" y="95" width="22" height="65" rx="3" fill="#4E5D3F" opacity="0.7"/>
    <rect x="542" y="50" width="22" height="110" rx="3" fill="#C75B3B" opacity="0.7"/>

    <text x="21" y="178" text-anchor="middle" font-family="'Source Sans 3', sans-serif" font-size="9" fill="#8A8870">12</text>
    <text x="59" y="178" text-anchor="middle" font-family="'Source Sans 3', sans-serif" font-size="9" fill="#8A8870">13</text>
    <text x="97" y="178" text-anchor="middle" font-family="'Source Sans 3', sans-serif" font-size="9" fill="#8A8870">14</text>
    <text x="135" y="178" text-anchor="middle" font-family="'Source Sans 3', sans-serif" font-size="9" fill="#8A8870">15</text>
    <text x="173" y="178" text-anchor="middle" font-family="'Source Sans 3', sans-serif" font-size="9" fill="#8A8870">16</text>
    <text x="211" y="178" text-anchor="middle" font-family="'Source Sans 3', sans-serif" font-size="9" fill="#8A8870">17</text>
    <text x="249" y="178" text-anchor="middle" font-family="'Source Sans 3', sans-serif" font-size="9" fill="#8A8870">18</text>
    <text x="287" y="178" text-anchor="middle" font-family="'Source Sans 3', sans-serif" font-size="9" fill="#8A8870">19</text>
    <text x="325" y="178" text-anchor="middle" font-family="'Source Sans 3', sans-serif" font-size="9" fill="#8A8870">20</text>
    <text x="363" y="178" text-anchor="middle" font-family="'Source Sans 3', sans-serif" font-size="9" fill="#8A8870">21</text>
    <text x="401" y="178" text-anchor="middle" font-family="'Source Sans 3', sans-serif" font-size="9" fill="#8A8870">22</text>
    <text x="439" y="178" text-anchor="middle" font-family="'Source Sans 3', sans-serif" font-size="9" fill="#8A8870">23</text>
    <text x="477" y="178" text-anchor="middle" font-family="'Source Sans 3', sans-serif" font-size="9" fill="#8A8870">24</text>
    <text x="515" y="178" text-anchor="middle" font-family="'Source Sans 3', sans-serif" font-size="9" fill="#8A8870">25</text>
    <text x="553" y="178" text-anchor="middle" font-family="'Source Sans 3', sans-serif" font-size="9" fill="#8A8870">26</text>

    <text x="0" y="5" text-anchor="end" font-family="'Source Sans 3', sans-serif" font-size="9" fill="#8A8870">600</text>
    <text x="0" y="45" text-anchor="end" font-family="'Source Sans 3', sans-serif" font-size="9" fill="#8A8870">450</text>
    <text x="0" y="105" text-anchor="end" font-family="'Source Sans 3', sans-serif" font-size="9" fill="#8A8870">300</text>
    <text x="0" y="160" text-anchor="end" font-family="'Source Sans 3', sans-serif" font-size="9" fill="#8A8870">150</text>
  </g>

  <!-- Legend -->
  <g transform="translate(280, 418)">
    <rect x="0" y="0" width="14" height="14" rx="2" fill="#4E5D3F" opacity="0.7"/>
    <text x="20" y="11" font-family="'Source Sans 3', sans-serif" font-size="11" fill="#2F3D26">kcal actividad</text>
    <rect x="120" y="0" width="14" height="14" rx="2" fill="#C75B3B" opacity="0.7"/>
    <text x="140" y="11" font-family="'Source Sans 3', sans-serif" font-size="11" fill="#2F3D26">días sobre objetivo</text>
  </g>

  <!-- Right column: sport ranking -->
  <rect x="890" y="196" width="382" height="240" rx="14" fill="#FBF7EE" stroke="#D8D2C4"/>
  <text x="910" y="222" font-family="'Fraunces', serif" font-style="italic" font-size="13" fill="#4E5D3F">Ranking por tipo (15d)</text>

  <g transform="translate(910, 240)">
    <text x="0" y="14" font-family="'Source Sans 3', sans-serif" font-size="12" font-weight="600" fill="#2F3D26">🏃 Carrera</text>
    <text x="180" y="14" font-family="'Source Sans 3', sans-serif" font-size="10" fill="#8A8870">4 ses · 320 kcal</text>
    <path d="M 240 18 L 260 16 L 280 14 L 300 12 L 320 10 L 340 8" stroke="#4E5D3F" stroke-width="1.4" fill="none" stroke-linecap="round"/>
    <text x="358" y="14" text-anchor="end" font-family="'Fraunces', Georgia, serif" font-size="13" font-weight="600" fill="#2F3D26">1.280</text>
  </g>

  <g transform="translate(910, 268)">
    <text x="0" y="14" font-family="'Source Sans 3', sans-serif" font-size="12" font-weight="600" fill="#2F3D26">🚴 Ciclismo</text>
    <text x="180" y="14" font-family="'Source Sans 3', sans-serif" font-size="10" fill="#8A8870">3 ses · 450 kcal</text>
    <path d="M 240 16 L 260 14 L 280 12 L 300 10 L 320 6 L 340 4" stroke="#4E5D3F" stroke-width="1.4" fill="none" stroke-linecap="round"/>
    <text x="358" y="14" text-anchor="end" font-family="'Fraunces', Georgia, serif" font-size="13" font-weight="600" fill="#2F3D26">1.350</text>
  </g>

  <g transform="translate(910, 296)">
    <text x="0" y="14" font-family="'Source Sans 3', sans-serif" font-size="12" font-weight="600" fill="#2F3D26">🏋️ Fuerza</text>
    <text x="180" y="14" font-family="'Source Sans 3', sans-serif" font-size="10" fill="#8A8870">5 ses · 180 kcal</text>
    <path d="M 240 12 L 260 14 L 280 16 L 300 14 L 320 18 L 340 20" stroke="#C75B3B" stroke-width="1.4" fill="none" stroke-linecap="round"/>
    <text x="358" y="14" text-anchor="end" font-family="'Fraunces', Georgia, serif" font-size="13" font-weight="600" fill="#2F3D26">900</text>
  </g>

  <g transform="translate(910, 324)">
    <text x="0" y="14" font-family="'Source Sans 3', sans-serif" font-size="12" font-weight="600" fill="#2F3D26">🥾 Caminata</text>
    <text x="180" y="14" font-family="'Source Sans 3', sans-serif" font-size="10" fill="#8A8870">2 ses · 120 kcal</text>
    <path d="M 240 16 L 260 18 L 280 16 L 300 14 L 320 16 L 340 16" stroke="#D7DAC7" stroke-width="1.4" fill="none" stroke-linecap="round"/>
    <text x="358" y="14" text-anchor="end" font-family="'Fraunces', Georgia, serif" font-size="13" font-weight="600" fill="#2F3D26">240</text>
  </g>

  <g transform="translate(910, 352)">
    <text x="0" y="14" font-family="'Source Sans 3', sans-serif" font-size="12" font-weight="600" fill="#2F3D26">🧘 Yoga</text>
    <text x="180" y="14" font-family="'Source Sans 3', sans-serif" font-size="10" fill="#8A8870">1 ses · 90 kcal</text>
    <path d="M 240 18 L 260 16 L 280 16 L 300 14 L 320 14 L 340 14" stroke="#D7DAC7" stroke-width="1.4" fill="none" stroke-linecap="round"/>
    <text x="358" y="14" text-anchor="end" font-family="'Fraunces', Georgia, serif" font-size="13" font-weight="600" fill="#2F3D26">90</text>
  </g>

  <g transform="translate(910, 380)">
    <text x="0" y="14" font-family="'Source Sans 3', sans-serif" font-size="12" font-weight="600" fill="#2F3D26">🏊 Natación</text>
    <text x="180" y="14" font-family="'Source Sans 3', sans-serif" font-size="10" fill="#8A8870">1 ses · 410 kcal</text>
    <path d="M 240 14 L 260 12 L 280 8 L 300 6 L 320 4 L 340 2" stroke="#4E5D3F" stroke-width="1.4" fill="none" stroke-linecap="round"/>
    <text x="358" y="14" text-anchor="end" font-family="'Fraunces', Georgia, serif" font-size="13" font-weight="600" fill="#2F3D26">410</text>
  </g>

  <line x1="910" y1="412" x2="1252" y2="412" stroke="#E6E0D2" stroke-width="1"/>
  <text x="910" y="428" font-family="'Source Sans 3', sans-serif" font-size="10" fill="#8A8870">Total: 4.270 kcal · 16 sesiones · 6 tipos</text>

  <!-- Recent sessions table -->
  <rect x="250" y="452" width="1022" height="248" rx="14" fill="#FBF7EE" stroke="#D8D2C4"/>
  <text x="270" y="478" font-family="'Fraunces', serif" font-style="italic" font-size="13" fill="#4E5D3F">Sesiones recientes</text>

  <g transform="translate(270, 494)">
    <rect x="0" y="0" width="982" height="34" rx="6" fill="#F4EFE6"/>
    <text x="20" y="22" font-family="'Fraunces', serif" font-style="italic" font-size="10" fill="#8A8870" letter-spacing="0.5">FECHA</text>
    <text x="140" y="22" font-family="'Fraunces', serif" font-style="italic" font-size="10" fill="#8A8870" letter-spacing="0.5">TIPO</text>
    <text x="340" y="22" font-family="'Fraunces', serif" font-style="italic" font-size="10" fill="#8A8870" letter-spacing="0.5">DURACIÓN</text>
    <text x="500" y="22" font-family="'Fraunces', serif" font-style="italic" font-size="10" fill="#8A8870" letter-spacing="0.5">DISTANCIA</text>
    <text x="660" y="22" font-family="'Fraunces', serif" font-style="italic" font-size="10" fill="#8A8870" letter-spacing="0.5">CALORÍAS</text>
    <text x="800" y="22" font-family="'Fraunces', serif" font-style="italic" font-size="10" fill="#8A8870" letter-spacing="0.5">FC MEDIA</text>
    <text x="940" y="22" text-anchor="end" font-family="'Fraunces', serif" font-style="italic" font-size="10" fill="#8A8870" letter-spacing="0.5">FUENTE</text>
  </g>

  <g transform="translate(270, 532)">
    <line x1="0" y1="0" x2="982" y2="0" stroke="#E6E0D2"/>
    <text x="20" y="22" font-family="'Source Sans 3', sans-serif" font-size="13" fill="#2F3D26">26 jun 2026</text>
    <text x="140" y="22" font-family="'Source Sans 3', sans-serif" font-size="13" fill="#2F3D26">🏃 Carrera suave</text>
    <text x="340" y="22" font-family="'Source Sans 3', sans-serif" font-size="13" fill="#2F3D26">42 min</text>
    <text x="500" y="22" font-family="'Source Sans 3', sans-serif" font-size="13" fill="#2F3D26">5.8 km</text>
    <text x="660" y="22" font-family="'Source Sans 3', sans-serif" font-size="13" fill="#2F3D26">380 kcal</text>
    <text x="800" y="22" font-family="'Source Sans 3', sans-serif" font-size="13" fill="#2F3D26">142 bpm</text>
    <text x="940" y="22" text-anchor="end" font-family="'Source Sans 3', sans-serif" font-size="11" fill="#8A8870">⌚ Apple Watch</text>
  </g>

  <g transform="translate(270, 564)">
    <line x1="0" y1="0" x2="982" y2="0" stroke="#E6E0D2"/>
    <text x="20" y="22" font-family="'Source Sans 3', sans-serif" font-size="13" fill="#2F3D26">25 jun 2026</text>
    <text x="140" y="22" font-family="'Source Sans 3', sans-serif" font-size="13" fill="#2F3D26">🚴 Ciclismo ruta</text>
    <text x="340" y="22" font-family="'Source Sans 3', sans-serif" font-size="13" fill="#2F3D26">1h 24m</text>
    <text x="500" y="22" font-family="'Source Sans 3', sans-serif" font-size="13" fill="#2F3D26">32.5 km</text>
    <text x="660" y="22" font-family="'Source Sans 3', sans-serif" font-size="13" fill="#2F3D26">640 kcal</text>
    <text x="800" y="22" font-family="'Source Sans 3', sans-serif" font-size="13" fill="#2F3D26">138 bpm</text>
    <text x="940" y="22" text-anchor="end" font-family="'Source Sans 3', sans-serif" font-size="11" fill="#8A8870">⌚ Apple Watch</text>
  </g>

  <g transform="translate(270, 596)">
    <line x1="0" y1="0" x2="982" y2="0" stroke="#E6E0D2"/>
    <text x="20" y="22" font-family="'Source Sans 3', sans-serif" font-size="13" fill="#2F3D26">24 jun 2026</text>
    <text x="140" y="22" font-family="'Source Sans 3', sans-serif" font-size="13" fill="#2F3D26">🏋️ Fuerza · Empuje</text>
    <text x="340" y="22" font-family="'Source Sans 3', sans-serif" font-size="13" fill="#2F3D26">55 min</text>
    <text x="500" y="22" font-family="'Source Sans 3', sans-serif" font-size="13" fill="#2F3D26">—</text>
    <text x="660" y="22" font-family="'Source Sans 3', sans-serif" font-size="13" fill="#2F3D26">220 kcal</text>
    <text x="800" y="22" font-family="'Source Sans 3', sans-serif" font-size="13" fill="#2F3D26">118 bpm</text>
    <text x="940" y="22" text-anchor="end" font-family="'Source Sans 3', sans-serif" font-size="11" fill="#8A8870">Manual</text>
  </g>

  <g transform="translate(270, 628)">
    <line x1="0" y1="0" x2="982" y2="0" stroke="#E6E0D2"/>
    <text x="20" y="22" font-family="'Source Sans 3', sans-serif" font-size="13" fill="#2F3D26">23 jun 2026</text>
    <text x="140" y="22" font-family="'Source Sans 3', sans-serif" font-size="13" fill="#2F3D26">🏃 Carrera intervalos</text>
    <text x="340" y="22" font-family="'Source Sans 3', sans-serif" font-size="13" fill="#2F3D26">38 min</text>
    <text x="500" y="22" font-family="'Source Sans 3', sans-serif" font-size="13" fill="#2F3D26">6.2 km</text>
    <text x="660" y="22" font-family="'Source Sans 3', sans-serif" font-size="13" fill="#2F3D26">420 kcal</text>
    <text x="800" y="22" font-family="'Source Sans 3', sans-serif" font-size="13" fill="#2F3D26">156 bpm</text>
    <text x="940" y="22" text-anchor="end" font-family="'Source Sans 3', sans-serif" font-size="11" fill="#8A8870">⌚ Apple Watch</text>
  </g>

  <g transform="translate(270, 660)">
    <line x1="0" y1="0" x2="982" y2="0" stroke="#E6E0D2"/>
    <text x="20" y="22" font-family="'Source Sans 3', sans-serif" font-size="13" fill="#2F3D26">22 jun 2026</text>
    <text x="140" y="22" font-family="'Source Sans 3', sans-serif" font-size="13" fill="#2F3D26">🥾 Caminata larga</text>
    <text x="340" y="22" font-family="'Source Sans 3', sans-serif" font-size="13" fill="#2F3D26">1h 12m</text>
    <text x="500" y="22" font-family="'Source Sans 3', sans-serif" font-size="13" fill="#2F3D26">5.4 km</text>
    <text x="660" y="22" font-family="'Source Sans 3', sans-serif" font-size="13" fill="#2F3D26">240 kcal</text>
    <text x="800" y="22" font-family="'Source Sans 3', sans-serif" font-size="13" fill="#2F3D26">98 bpm</text>
    <text x="940" y="22" text-anchor="end" font-family="'Source Sans 3', sans-serif" font-size="11" fill="#8A8870">⌚ Apple Watch</text>
  </g>

  <text x="270" y="720" font-family="'Source Sans 3', sans-serif" font-size="10" fill="#8A8870">Mostrando 5 de 16 sesiones · datos de Apple Watch y registros manuales</text>
</svg>
