<svg xmlns="http://www.w3.org/2000/svg" viewBox="0 0 1280 800" font-family="'Source Sans 3', 'Inter', sans-serif">
  <defs>
    <pattern id="grain" x="0" y="0" width="160" height="160" patternUnits="userSpaceOnUse">
      <rect width="160" height="160" fill="#F4EFE6"/>
      <rect width="160" height="160" filter="url(#n)" opacity="0.04"/>
    </pattern>
    <filter id="n">
      <feTurbulence type="fractalNoise" baseFrequency="0.9" numOctaves="2" stitchTiles="stitch"/>
      <feColorMatrix values="0 0 0 0 0.12  0 0 0 0 0.10  0 0 0 0 0.09  1 0"/>
    </filter>
    <linearGradient id="emberGrad" x1="0" y1="0" x2="1" y2="1">
      <stop offset="0%" stop-color="#C75B3B"/>
      <stop offset="100%" stop-color="#A14A2F"/>
    </linearGradient>
  </defs>

  <rect width="1280" height="800" fill="#F4EFE6"/>
  <rect width="1280" height="800" fill="url(#grain)"/>

  <!-- Sidebar -->
  <rect x="0" y="0" width="220" height="800" fill="#FBF7EE"/>
  <line x1="220" y1="0" x2="220" y2="800" stroke="#D8D2C4" stroke-width="1"/>
  <text x="24" y="40" font-family="'Fraunces', Georgia, serif" font-size="22" font-weight="600" fill="#2F3D26" letter-spacing="-0.5">FitOS</text>
  <text x="24" y="58" font-family="'Source Sans 3', sans-serif" font-size="11" fill="#8A8870">Leandro Pollola</text>

  <!-- Sidebar sections -->
  <text x="24" y="100" font-family="'Fraunces', serif" font-style="italic" font-size="10" fill="#8A8870" letter-spacing="1">INICIO  ▾</text>
  <rect x="14" y="108" width="192" height="34" rx="8" fill="#D7DAC7"/>
  <rect x="14" y="108" width="3" height="34" rx="1.5" fill="#4E5D3F"/>
  <circle cx="36" cy="125" r="5" fill="none" stroke="#2F3D26" stroke-width="1.6"/>
  <line x1="36" y1="120" x2="36" y2="128" stroke="#2F3D26" stroke-width="1.6" stroke-linecap="round"/>
  <line x1="31" y1="125" x2="41" y2="125" stroke="#2F3D26" stroke-width="1.6" stroke-linecap="round"/>
  <text x="52" y="129" font-family="'Source Sans 3', sans-serif" font-size="13" font-weight="500" fill="#2F3D26">Panel</text>

  <text x="36" y="160" font-family="'Source Sans 3', sans-serif" font-size="13" fill="#8A8870">Tendencias</text>

  <text x="24" y="200" font-family="'Fraunces', serif" font-style="italic" font-size="10" fill="#8A8870" letter-spacing="1">SALUD  ▾</text>
  <text x="36" y="226" font-family="'Source Sans 3', sans-serif" font-size="13" fill="#8A8870">Actividad</text>
  <text x="36" y="252" font-family="'Source Sans 3', sans-serif" font-size="13" fill="#8A8870">Sueño</text>
  <text x="36" y="278" font-family="'Source Sans 3', sans-serif" font-size="13" fill="#8A8870">Balance Energético</text>

  <text x="24" y="318" font-family="'Fraunces', serif" font-style="italic" font-size="10" fill="#8A8870" letter-spacing="1">ENTRENAMIENTO  ▾</text>
  <text x="36" y="344" font-family="'Source Sans 3', sans-serif" font-size="13" fill="#8A8870">Plan de Dieta</text>
  <text x="36" y="370" font-family="'Source Sans 3', sans-serif" font-size="13" fill="#8A8870">Mediciones</text>
  <text x="36" y="396" font-family="'Source Sans 3', sans-serif" font-size="13" fill="#8A8870">Entrenamiento</text>

  <line x1="24" y1="700" x2="196" y2="700" stroke="#D8D2C4" stroke-width="1"/>
  <text x="36" y="724" font-family="'Source Sans 3', sans-serif" font-size="13" fill="#8A8870">Perfil y Ajustes</text>

  <!-- Main content -->
  <text x="250" y="48" font-family="'Fraunces', Georgia, serif" font-size="28" font-weight="600" fill="#2F3D26" letter-spacing="-0.6">Panel</text>
  <text x="250" y="68" font-family="'Source Sans 3', sans-serif" font-size="12" fill="#8A8870">Última actualización: 27/06/2026 14:20</text>

  <!-- Filter buttons -->
  <g transform="translate(880, 36)">
    <rect x="0" y="0" width="48" height="28" rx="6" fill="#FBF7EE" stroke="#D8D2C4"/>
    <text x="24" y="18" text-anchor="middle" font-family="'Source Sans 3', sans-serif" font-size="12" fill="#8A8870">7d</text>
    <rect x="56" y="0" width="48" height="28" rx="6" fill="#4E5D3F"/>
    <text x="80" y="18" text-anchor="middle" font-family="'Source Sans 3', sans-serif" font-size="12" font-weight="600" fill="#FBF7EE">15d</text>
    <rect x="112" y="0" width="48" height="28" rx="6" fill="#FBF7EE" stroke="#D8D2C4"/>
    <text x="136" y="18" text-anchor="middle" font-family="'Source Sans 3', sans-serif" font-size="12" fill="#8A8870">1m</text>
  </g>

  <!-- Hero card: growth ring + balance -->
  <rect x="250" y="90" width="380" height="200" rx="14" fill="#FBF7EE" stroke="#D8D2C4" filter="url(#shadowSoft)"/>

  <!-- Growth ring (15 segments, varying radii) -->
  <g transform="translate(330, 190)">
    <circle cx="0" cy="0" r="47" fill="none" stroke="#D7DAC7" stroke-width="1" opacity="0.5"/>
    <path d="M 47 0 A 47 47 0 0 1 36.21 29.61" stroke="#4E5D3F" stroke-width="4.5" stroke-linecap="round" fill="none"/>
    <path d="M 36.21 29.61 A 47 47 0 0 1 12.71 45.25" stroke="#D7DAC7" stroke-width="3" stroke-linecap="round" fill="none"/>
    <path d="M 12.71 45.25 A 47 47 0 0 1 -12.71 45.25" stroke="#4E5D3F" stroke-width="5" stroke-linecap="round" fill="none"/>
    <path d="M -12.71 45.25 A 47 47 0 0 1 -36.21 29.61" stroke="#C75B3B" stroke-width="3.5" stroke-linecap="round" fill="none"/>
    <path d="M -36.21 29.61 A 47 47 0 0 1 -47 0" stroke="#4E5D3F" stroke-width="6" stroke-linecap="round" fill="none"/>
    <path d="M -47 0 A 47 47 0 0 1 -36.21 -29.61" stroke="#D7DAC7" stroke-width="3" stroke-linecap="round" fill="none"/>
    <path d="M -36.21 -29.61 A 47 47 0 0 1 -12.71 -45.25" stroke="#4E5D3F" stroke-width="5.5" stroke-linecap="round" fill="none"/>
    <path d="M -12.71 -45.25 A 47 47 0 0 1 12.71 -45.25" stroke="#4E5D3F" stroke-width="4" stroke-linecap="round" fill="none"/>
    <path d="M 12.71 -45.25 A 47 47 0 0 1 36.21 -29.61" stroke="#C75B3B" stroke-width="2.8" stroke-linecap="round" fill="none"/>
    <path d="M 36.21 -29.61 A 47 47 0 0 1 47 0" stroke="#4E5D3F" stroke-width="5" stroke-linecap="round" fill="none"/>
    <text x="0" y="-3" text-anchor="middle" font-family="'Fraunces', Georgia, serif" font-size="22" font-weight="600" fill="#2F3D26">15d</text>
    <text x="0" y="12" text-anchor="middle" font-family="'Source Sans 3', sans-serif" font-size="9" fill="#8A8870">promedio</text>
  </g>

  <text x="395" y="125" font-family="'Fraunces', serif" font-style="italic" font-size="13" fill="#4E5D3F">Balance semanal</text>
  <text x="395" y="160" font-family="'Fraunces', Georgia, serif" font-size="34" font-weight="600" fill="#2F3D26">−1.450</text>
  <text x="490" y="160" font-family="'Source Sans 3', sans-serif" font-size="14" fill="#8A8870">kcal</text>
  <text x="395" y="180" font-family="'Source Sans 3', sans-serif" font-size="12" fill="#8A8870">Promedio/día: −207 kcal</text>
  <line x1="395" y1="195" x2="600" y2="195" stroke="#E6E0D2" stroke-width="1"/>
  <text x="395" y="215" font-family="'Source Sans 3', sans-serif" font-size="11" fill="#4E5D3F">TMB 1.642 + Activ 487</text>
  <text x="395" y="232" font-family="'Source Sans 3', sans-serif" font-size="11" fill="#8A8870">11 días con datos</text>

  <!-- Ring legend -->
  <g transform="translate(395, 250)">
    <circle cx="4" cy="0" r="3" fill="#4E5D3F"/>
    <text x="12" y="3" font-family="'Source Sans 3', sans-serif" font-size="10" fill="#2F3D26">Déficit fuerte</text>
    <circle cx="100" cy="0" r="3" fill="#D7DAC7"/>
    <text x="108" y="3" font-family="'Source Sans 3', sans-serif" font-size="10" fill="#2F3D26">Déficit leve</text>
    <circle cx="195" cy="0" r="3" fill="#C75B3B"/>
    <text x="203" y="3" font-family="'Source Sans 3', sans-serif" font-size="10" fill="#2F3D26">Superávit</text>
  </g>

  <!-- KPI cards row 1 -->
  <!-- Peso -->
  <rect x="650" y="90" width="148" height="96" rx="14" fill="#FBF7EE" stroke="#D8D2C4"/>
  <text x="664" y="112" font-family="'Fraunces', serif" font-style="italic" font-size="11" fill="#8A8870">Último peso</text>
  <text x="664" y="138" font-family="'Fraunces', Georgia, serif" font-size="22" font-weight="600" fill="#2F3D26">78.5 kg</text>
  <path d="M 664 152 L 676 154 L 700 152 L 740 148 L 784 145" stroke="#4E5D3F" stroke-width="1.4" fill="none" stroke-linecap="round"/>
  <path d="M 664 152 L 676 154 L 700 152 L 740 148 L 784 145 L 784 170 L 664 170 Z" fill="#4E5D3F" opacity="0.12"/>
  <circle cx="784" cy="145" r="2" fill="#2F3D26" stroke="#FBF7EE" stroke-width="1.2"/>
  <text x="664" y="180" font-family="'Source Sans 3', sans-serif" font-size="10" fill="#C75B3B">▼ −0.8 kg</text>

  <!-- Pasos -->
  <rect x="808" y="90" width="148" height="96" rx="14" fill="#FBF7EE" stroke="#D8D2C4"/>
  <text x="822" y="112" font-family="'Fraunces', serif" font-style="italic" font-size="11" fill="#8A8870">Pasos / día</text>
  <text x="822" y="138" font-family="'Fraunces', Georgia, serif" font-size="22" font-weight="600" fill="#2F3D26">8.542</text>
  <path d="M 822 152 L 832 154 L 852 148 L 872 152 L 892 144 L 912 146 L 932 140 L 942 138" stroke="#4E5D3F" stroke-width="1.4" fill="none" stroke-linecap="round"/>
  <path d="M 822 152 L 832 154 L 852 148 L 872 152 L 892 144 L 912 146 L 932 140 L 942 138 L 942 170 L 822 170 Z" fill="#4E5D3F" opacity="0.12"/>
  <circle cx="942" cy="138" r="2" fill="#2F3D26" stroke="#FBF7EE" stroke-width="1.2"/>
  <text x="822" y="180" font-family="'Source Sans 3', sans-serif" font-size="10" fill="#4E5D3F">▲ +12% vs período</text>

  <!-- FC reposo -->
  <rect x="966" y="90" width="148" height="96" rx="14" fill="#FBF7EE" stroke="#D8D2C4"/>
  <text x="980" y="112" font-family="'Fraunces', serif" font-style="italic" font-size="11" fill="#8A8870">FC en reposo</text>
  <text x="980" y="138" font-family="'Fraunces', Georgia, serif" font-size="22" font-weight="600" fill="#2F3D26">58 bpm</text>
  <path d="M 980 152 L 1000 154 L 1020 152 L 1040 150 L 1060 154 L 1080 152 L 1100 154" stroke="#4E5D3F" stroke-width="1.4" fill="none" stroke-linecap="round"/>
  <path d="M 980 152 L 1000 154 L 1020 152 L 1040 150 L 1060 154 L 1080 152 L 1100 154 L 1100 170 L 980 170 Z" fill="#4E5D3F" opacity="0.12"/>
  <circle cx="1100" cy="154" r="2" fill="#2F3D26" stroke="#FBF7EE" stroke-width="1.2"/>
  <text x="980" y="180" font-family="'Source Sans 3', sans-serif" font-size="10" fill="#4E5D3F">▼ −3 vs período</text>

  <!-- HRV -->
  <rect x="1124" y="90" width="148" height="96" rx="14" fill="#FBF7EE" stroke="#D8D2C4"/>
  <text x="1138" y="112" font-family="'Fraunces', serif" font-style="italic" font-size="11" fill="#8A8870">HRV</text>
  <text x="1138" y="138" font-family="'Fraunces', Georgia, serif" font-size="22" font-weight="600" fill="#2F3D26">52 ms</text>
  <path d="M 1138 152 L 1156 148 L 1174 154 L 1192 144 L 1212 150 L 1232 142 L 1252 146 L 1260 144" stroke="#C75B3B" stroke-width="1.4" fill="none" stroke-linecap="round"/>
  <path d="M 1138 152 L 1156 148 L 1174 154 L 1192 144 L 1212 150 L 1232 142 L 1252 146 L 1260 144 L 1260 170 L 1138 170 Z" fill="#C75B3B" opacity="0.12"/>
  <circle cx="1260" cy="144" r="2" fill="#2F3D26" stroke="#FBF7EE" stroke-width="1.2"/>
  <text x="1138" y="180" font-family="'Source Sans 3', sans-serif" font-size="10" fill="#8A8870">↔ estable</text>

  <!-- KPI cards row 2 -->
  <!-- Sueño -->
  <rect x="650" y="196" width="148" height="96" rx="14" fill="#FBF7EE" stroke="#D8D2C4"/>
  <text x="664" y="218" font-family="'Fraunces', serif" font-style="italic" font-size="11" fill="#8A8870">Sueño prom.</text>
  <text x="664" y="244" font-family="'Fraunces', Georgia, serif" font-size="22" font-weight="600" fill="#2F3D26">7h 32m</text>
  <text x="664" y="262" font-family="'Source Sans 3', sans-serif" font-size="10" fill="#4E5D3F">✓ Cumple objetivo</text>
  <rect x="664" y="270" width="120" height="6" rx="3" fill="#E6E0D2"/>
  <rect x="664" y="270" width="92" height="6" rx="3" fill="#4E5D3F"/>

  <!-- SpO2 -->
  <rect x="808" y="196" width="148" height="96" rx="14" fill="#FBF7EE" stroke="#D8D2C4"/>
  <text x="822" y="218" font-family="'Fraunces', serif" font-style="italic" font-size="11" fill="#8A8870">SpO₂</text>
  <text x="822" y="244" font-family="'Fraunces', Georgia, serif" font-size="22" font-weight="600" fill="#2F3D26">97%</text>
  <text x="822" y="262" font-family="'Source Sans 3', sans-serif" font-size="10" fill="#4E5D3F">✓ Normal</text>

  <!-- Ejercicio -->
  <rect x="966" y="196" width="148" height="96" rx="14" fill="#FBF7EE" stroke="#D8D2C4"/>
  <text x="980" y="218" font-family="'Fraunces', serif" font-style="italic" font-size="11" fill="#8A8870">Ejercicio</text>
  <text x="980" y="244" font-family="'Fraunces', Georgia, serif" font-size="22" font-weight="600" fill="#2F3D26">42 min/día</text>
  <text x="980" y="262" font-family="'Source Sans 3', sans-serif" font-size="10" fill="#4E5D3F">✓ Cumple objetivo</text>
  <rect x="980" y="270" width="120" height="6" rx="3" fill="#E6E0D2"/>
  <rect x="980" y="270" width="110" height="6" rx="3" fill="#4E5D3F"/>

  <!-- Consistencia -->
  <rect x="1124" y="196" width="148" height="96" rx="14" fill="#FBF7EE" stroke="#D8D2C4"/>
  <text x="1138" y="218" font-family="'Fraunces', serif" font-style="italic" font-size="11" fill="#8A8870">Constancia</text>
  <text x="1138" y="244" font-family="'Fraunces', Georgia, serif" font-size="22" font-weight="600" fill="#2F3D26">11/15</text>
  <text x="1138" y="262" font-family="'Source Sans 3', sans-serif" font-size="10" fill="#8A8870">semanas totales: 23</text>
  <text x="1138" y="276" font-family="'Source Sans 3', sans-serif" font-size="10" fill="#C75B3B">🔥 racha 5 sem</text>

  <!-- Trend chart -->
  <rect x="250" y="306" width="500" height="220" rx="14" fill="#FBF7EE" stroke="#D8D2C4"/>
  <text x="270" y="332" font-family="'Fraunces', serif" font-style="italic" font-size="13" fill="#4E5D3F">Tendencia de actividad — kcal/día (15d)</text>
  <line x1="270" y1="350" x2="730" y2="350" stroke="#E6E0D2" stroke-width="1"/>
  <line x1="270" y1="395" x2="730" y2="395" stroke="#E6E0D2" stroke-width="1" stroke-dasharray="2 3"/>
  <line x1="270" y1="440" x2="730" y2="440" stroke="#E6E0D2" stroke-width="1"/>
  <line x1="270" y1="485" x2="730" y2="485" stroke="#E6E0D2" stroke-width="1"/>
  <!-- Bar series -->
  <rect x="280" y="380" width="20" height="105" rx="2" fill="#4E5D3F" opacity="0.5"/>
  <rect x="310" y="360" width="20" height="125" rx="2" fill="#4E5D3F" opacity="0.5"/>
  <rect x="340" y="400" width="20" height="85" rx="2" fill="#4E5D3F" opacity="0.5"/>
  <rect x="370" y="350" width="20" height="135" rx="2" fill="#4E5D3F" opacity="0.5"/>
  <rect x="400" y="375" width="20" height="110" rx="2" fill="#4E5D3F" opacity="0.5"/>
  <rect x="430" y="365" width="20" height="120" rx="2" fill="#4E5D3F" opacity="0.5"/>
  <rect x="460" y="345" width="20" height="140" rx="2" fill="#4E5D3F" opacity="0.5"/>
  <rect x="490" y="380" width="20" height="105" rx="2" fill="#4E5D3F" opacity="0.5"/>
  <rect x="520" y="355" width="20" height="130" rx="2" fill="#4E5D3F" opacity="0.5"/>
  <rect x="550" y="370" width="20" height="115" rx="2" fill="#4E5D3F" opacity="0.5"/>
  <rect x="580" y="350" width="20" height="135" rx="2" fill="#4E5D3F" opacity="0.5"/>
  <rect x="610" y="365" width="20" height="120" rx="2" fill="#4E5D3F" opacity="0.5"/>
  <rect x="640" y="380" width="20" height="105" rx="2" fill="#4E5D3F" opacity="0.5"/>
  <rect x="670" y="360" width="20" height="125" rx="2" fill="#4E5D3F" opacity="0.5"/>
  <rect x="700" y="345" width="20" height="140" rx="2" fill="#4E5D3F" opacity="0.5"/>
  <!-- Mean line -->
  <line x1="270" y1="395" x2="730" y2="395" stroke="#8A8870" stroke-width="1" stroke-dasharray="4 4" opacity="0.6"/>
  <text x="270" y="503" font-family="'Source Sans 3', sans-serif" font-size="9" fill="#8A8870">12 jun</text>
  <text x="500" y="503" text-anchor="middle" font-family="'Source Sans 3', sans-serif" font-size="9" fill="#8A8870">19 jun</text>
  <text x="730" y="503" text-anchor="end" font-family="'Source Sans 3', sans-serif" font-size="9" fill="#8A8870">26 jun</text>

  <!-- Activity ranking -->
  <rect x="770" y="306" width="502" height="220" rx="14" fill="#FBF7EE" stroke="#D8D2C4"/>
  <text x="790" y="332" font-family="'Fraunces', serif" font-style="italic" font-size="13" fill="#4E5D3F">Actividad por tipo</text>

  <g transform="translate(790, 350)">
    <rect x="0" y="0" width="462" height="36" rx="8" fill="#F4EFE6"/>
    <text x="14" y="22" font-family="'Source Sans 3', sans-serif" font-size="13" font-weight="500" fill="#2F3D26">🏃 Carrera</text>
    <text x="120" y="22" font-family="'Source Sans 3', sans-serif" font-size="11" fill="#8A8870">4 sesiones</text>
    <path d="M 200 26 L 220 24 L 240 22 L 260 20 L 280 18 L 300 16" stroke="#4E5D3F" stroke-width="1.4" fill="none" stroke-linecap="round"/>
    <text x="380" y="22" font-family="'Fraunces', Georgia, serif" font-size="14" font-weight="600" fill="#2F3D26">320 kcal/ses</text>
    <text x="446" y="22" text-anchor="end" font-family="'Source Sans 3', sans-serif" font-size="11" font-weight="600" fill="#4E5D3F">1.280</text>
  </g>

  <g transform="translate(790, 392)">
    <rect x="0" y="0" width="462" height="36" rx="8" fill="#F4EFE6"/>
    <text x="14" y="22" font-family="'Source Sans 3', sans-serif" font-size="13" font-weight="500" fill="#2F3D26">🚴 Ciclismo</text>
    <text x="120" y="22" font-family="'Source Sans 3', sans-serif" font-size="11" fill="#8A8870">3 sesiones</text>
    <path d="M 200 24 L 220 22 L 240 20 L 260 18 L 280 14 L 300 10" stroke="#4E5D3F" stroke-width="1.4" fill="none" stroke-linecap="round"/>
    <text x="380" y="22" font-family="'Fraunces', Georgia, serif" font-size="14" font-weight="600" fill="#2F3D26">450 kcal/ses</text>
    <text x="446" y="22" text-anchor="end" font-family="'Source Sans 3', sans-serif" font-size="11" font-weight="600" fill="#4E5D3F">1.350</text>
  </g>

  <g transform="translate(790, 434)">
    <rect x="0" y="0" width="462" height="36" rx="8" fill="#F4EFE6"/>
    <text x="14" y="22" font-family="'Source Sans 3', sans-serif" font-size="13" font-weight="500" fill="#2F3D26">🏋️ Fuerza</text>
    <text x="120" y="22" font-family="'Source Sans 3', sans-serif" font-size="11" fill="#8A8870">5 sesiones</text>
    <path d="M 200 20 L 220 22 L 240 24 L 260 22 L 280 26 L 300 28" stroke="#C75B3B" stroke-width="1.4" fill="none" stroke-linecap="round"/>
    <text x="380" y="22" font-family="'Fraunces', Georgia, serif" font-size="14" font-weight="600" fill="#2F3D26">180 kcal/ses</text>
    <text x="446" y="22" text-anchor="end" font-family="'Source Sans 3', sans-serif" font-size="11" font-weight="600" fill="#C75B3B">900 ▼</text>
  </g>

  <g transform="translate(790, 476)">
    <rect x="0" y="0" width="462" height="36" rx="8" fill="#F4EFE6"/>
    <text x="14" y="22" font-family="'Source Sans 3', sans-serif" font-size="13" font-weight="500" fill="#2F3D26">🥾 Caminata</text>
    <text x="120" y="22" font-family="'Source Sans 3', sans-serif" font-size="11" fill="#8A8870">2 sesiones</text>
    <path d="M 200 24 L 220 26 L 240 24 L 260 22 L 280 24 L 300 24" stroke="#D7DAC7" stroke-width="1.4" fill="none" stroke-linecap="round"/>
    <text x="380" y="22" font-family="'Fraunces', Georgia, serif" font-size="14" font-weight="600" fill="#2F3D26">120 kcal/ses</text>
    <text x="446" y="22" text-anchor="end" font-family="'Source Sans 3', sans-serif" font-size="11" font-weight="600" fill="#8A8870">240</text>
  </g>

  <!-- Bottom row: next workout + summary -->
  <rect x="250" y="544" width="380" height="120" rx="14" fill="#FBF7EE" stroke="#D8D2C4"/>
  <text x="270" y="570" font-family="'Fraunces', serif" font-style="italic" font-size="12" fill="#8A8870">Próximo entrenamiento</text>
  <text x="270" y="600" font-family="'Fraunces', Georgia, serif" font-size="20" font-weight="600" fill="#2F3D26">4× Superior / Inferior</text>
  <text x="270" y="620" font-family="'Source Sans 3', sans-serif" font-size="12" fill="#4E5D3F">Empuje — Pecho, Hombros</text>
  <text x="270" y="640" font-family="'Source Sans 3', sans-serif" font-size="11" fill="#8A8870">6 ejercicios · 45 min estimados</text>
  <rect x="270" y="648" width="80" height="6" rx="3" fill="#E6E0D2"/>
  <rect x="270" y="648" width="14" height="6" rx="3" fill="#4E5D3F"/>

  <!-- Delta medidas -->
  <rect x="650" y="544" width="290" height="120" rx="14" fill="#FBF7EE" stroke="#D8D2C4"/>
  <text x="670" y="570" font-family="'Fraunces', serif" font-style="italic" font-size="12" fill="#8A8870">Delta mediciones (30d)</text>
  <text x="670" y="602" font-family="'Fraunces', Georgia, serif" font-size="26" font-weight="600" fill="#4E5D3F">−2.3 cm</text>
  <text x="790" y="602" font-family="'Source Sans 3', sans-serif" font-size="13" fill="#8A8870">cintura</text>
  <text x="670" y="624" font-family="'Source Sans 3', sans-serif" font-size="11" fill="#8A8870">peso −0.8 kg · grasa corporal −0.6%</text>

  <!-- Sueño promedio + trend -->
  <rect x="960" y="544" width="312" height="120" rx="14" fill="#FBF7EE" stroke="#D8D2C4"/>
  <text x="980" y="570" font-family="'Fraunces', serif" font-style="italic" font-size="12" fill="#8A8870">Resumen de sueño</text>
  <text x="980" y="602" font-family="'Fraunces', Georgia, serif" font-size="24" font-weight="600" fill="#2F3D26">7h 32m</text>
  <text x="980" y="620" font-family="'Source Sans 3', sans-serif" font-size="11" fill="#8A8870">7d: 7.5h · 15d: 7.2h</text>
  <text x="980" y="640" font-family="'Source Sans 3', sans-serif" font-size="11" fill="#4E5D3F">✓ 12/15 noches en objetivo</text>
  <rect x="980" y="648" width="270" height="6" rx="3" fill="#E6E0D2"/>
  <rect x="980" y="648" width="216" height="6" rx="3" fill="#4E5D3F"/>

  <!-- Footer status -->
  <text x="250" y="710" font-family="'Fraunces', serif" font-style="italic" font-size="11" fill="#8A8870">HealthSync · 1.247 registros importados</text>
  <text x="250" y="728" font-family="'Source Sans 3', sans-serif" font-size="10" fill="#8A8870">— datos en tiempo real, sin nube</text>
</svg>
