<svg xmlns="http://www.w3.org/2000/svg" viewBox="0 0 1000 700" font-family="system-ui, -apple-system, sans-serif">
  <defs>
    <linearGradient id="bg" x1="0" y1="0" x2="0" y2="1">
      <stop offset="0%" stop-color="#1a1a2e"/>
      <stop offset="100%" stop-color="#16213e"/>
    </linearGradient>
  </defs>
  <rect width="1000" height="700" fill="url(#bg)"/>
  <text x="20" y="36" fill="white" font-size="18" font-weight="bold">Plan de Dieta — 5 Columnas de Comidas</text>

  <!-- 5 meal columns -->
  <g transform="translate(10, 55)">
    <!-- Col 1: Desayuno -->
    <rect x="0" y="0" width="190" height="580" rx="8" fill="#1e293b" stroke="#2d2d4a" stroke-width="1"/>
    <text x="95" y="25" text-anchor="middle" fill="#0D9488" font-size="13" font-weight="600">Desayuno</text>
    <line x1="10" y1="35" x2="180" y2="35" stroke="#2d2d4a" stroke-width="1"/>

    <rect x="8" y="42" width="174" height="90" rx="6" fill="#1a1a2e"/>
    <text x="16" y="60" fill="#9ca3af" font-size="11">Pan Integral</text>
    <text x="16" y="76" fill="#6b7280" font-size="10">100 kcal/100g · 100g Entr</text>
    <rect x="12" y="84" width="50" height="20" rx="4" fill="#0D9488" opacity="0.2"/>
    <text x="37" y="98" text-anchor="middle" fill="#0D9488" font-size="10" font-weight="600">Pan Blanco</text>
    <rect x="66" y="84" width="50" height="20" rx="4" fill="#0D9488" opacity="0.2"/>
    <text x="91" y="98" text-anchor="middle" fill="#0D9488" font-size="10">Avena</text>
    <rect x="120" y="84" width="50" height="20" rx="4" fill="#1a1a2e" stroke="#2d2d4a" stroke-width="1"/>
    <text x="145" y="98" text-anchor="middle" fill="#9ca3af" font-size="10">Tortas</text>

    <rect x="8" y="140" width="174" height="90" rx="6" fill="#1a1a2e"/>
    <text x="16" y="158" fill="#9ca3af" font-size="11">Pechuga de Pavo</text>
    <text x="16" y="174" fill="#6b7280" font-size="10">120 kcal/100g · 120g Entr</text>
    <rect x="12" y="182" width="50" height="20" rx="4" fill="#0D9488" opacity="0.2"/>
    <text x="37" y="196" text-anchor="middle" fill="#0D9488" font-size="10">Jamón Cocido</text>
    <rect x="66" y="182" width="50" height="20" rx="4" fill="#1a1a2e" stroke="#2d2d4a" stroke-width="1"/>
    <text x="91" y="196" text-anchor="middle" fill="#9ca3af" font-size="10">Pollo</text>

    <rect x="8" y="238" width="174" height="70" rx="6" fill="#1a1a2e"/>
    <text x="16" y="256" fill="#9ca3af" font-size="11">Frutos Secos</text>
    <text x="16" y="272" fill="#6b7280" font-size="10">607 kcal/100g · 10g Entr</text>

    <rect x="8" y="316" width="174" height="50" rx="6" fill="#1a1a2e"/>
    <text x="16" y="334" fill="#9ca3af" font-size="11">Fruta</text>
    <text x="16" y="350" fill="#6b7280" font-size="10">Opciones: Manzana, Naranja</text>

    <rect x="10" y="380" width="170" height="36" rx="6" fill="#1a1a2e" stroke="#2d2d4a" stroke-width="1"/>
    <text x="95" y="404" text-anchor="middle" fill="#0D9488" font-size="12" font-weight="600">385 kcal</text>

    <!-- Col 2: Media Mañana -->
    <rect x="200" y="0" width="190" height="580" rx="8" fill="#1e293b" stroke="#2d2d4a" stroke-width="1"/>
    <text x="295" y="25" text-anchor="middle" fill="#0D9488" font-size="13" font-weight="600">Media Mañana</text>
    <line x1="210" y1="35" x2="380" y2="35" stroke="#2d2d4a" stroke-width="1"/>

    <rect x="208" y="42" width="174" height="70" rx="6" fill="#1a1a2e"/>
    <text x="216" y="60" fill="#9ca3af" font-size="11">Harina de Avena</text>
    <text x="216" y="76" fill="#6b7280" font-size="10">389 kcal/100g · 30g</text>

    <rect x="208" y="120" width="174" height="70" rx="6" fill="#1a1a2e"/>
    <text x="216" y="138" fill="#9ca3af" font-size="11">Huevos</text>
    <text x="216" y="154" fill="#6b7280" font-size="10">155 kcal/100g · 10g</text>

    <rect x="208" y="198" width="174" height="70" rx="6" fill="#1a1a2e"/>
    <text x="216" y="216" fill="#9ca3af" font-size="11">Frutos Secos</text>
    <text x="216" y="232" fill="#6b7280" font-size="10">15g</text>

    <rect x="208" y="276" width="174" height="50" rx="6" fill="#1a1a2e"/>
    <text x="216" y="294" fill="#9ca3af" font-size="11">Yogur Natural</text>
    <text x="216" y="310" fill="#6b7280" font-size="10">300g</text>

    <rect x="210" y="340" width="170" height="36" rx="6" fill="#1a1a2e" stroke="#2d2d4a" stroke-width="1"/>
    <text x="295" y="364" text-anchor="middle" fill="#0D9488" font-size="12" font-weight="600">210 kcal</text>

    <!-- Col 3: Comida -->
    <rect x="400" y="0" width="190" height="580" rx="8" fill="#1e293b" stroke="#2d2d4a" stroke-width="1"/>
    <text x="495" y="25" text-anchor="middle" fill="#0D9488" font-size="13" font-weight="600">Comida</text>
    <line x1="410" y1="35" x2="580" y2="35" stroke="#2d2d4a" stroke-width="1"/>

    <rect x="408" y="42" width="174" height="90" rx="6" fill="#1a1a2e"/>
    <text x="416" y="60" fill="#9ca3af" font-size="11">Arroz Blanco</text>
    <text x="416" y="76" fill="#6b7280" font-size="10">130 kcal/100g · 60g Entr</text>
    <rect x="412" y="84" width="50" height="20" rx="4" fill="#0D9488" opacity="0.2"/>
    <text x="437" y="98" text-anchor="middle" fill="#0D9488" font-size="10">Pasta</text>
    <rect x="466" y="84" width="50" height="20" rx="4" fill="#1a1a2e" stroke="#2d2d4a" stroke-width="1"/>
    <text x="491" y="98" text-anchor="middle" fill="#9ca3af" font-size="10">Patata</text>

    <rect x="408" y="140" width="174" height="90" rx="6" fill="#1a1a2e"/>
    <text x="416" y="158" fill="#9ca3af" font-size="11">Pollo/Pavo</text>
    <text x="416" y="174" fill="#6b7280" font-size="10">150g</text>
    <rect x="412" y="182" width="50" height="20" rx="4" fill="#1a1a2e" stroke="#2d2d4a" stroke-width="1"/>
    <text x="437" y="196" text-anchor="middle" fill="#9ca3af" font-size="10">Pescado</text>

    <rect x="408" y="238" width="174" height="70" rx="6" fill="#1a1a2e"/>
    <text x="416" y="256" fill="#9ca3af" font-size="11">Aceite de Oliva</text>
    <text x="416" y="272" fill="#6b7280" font-size="10">10g</text>

    <rect x="408" y="316" width="174" height="50" rx="6" fill="#1a1a2e"/>
    <text x="416" y="334" fill="#9ca3af" font-size="11">Verduras Variadas</text>
    <text x="416" y="350" fill="#6b7280" font-size="10">150g</text>

    <rect x="410" y="380" width="170" height="36" rx="6" fill="#1a1a2e" stroke="#2d2d4a" stroke-width="1"/>
    <text x="495" y="404" text-anchor="middle" fill="#0D9488" font-size="12" font-weight="600">520 kcal</text>

    <!-- Col 4: Merienda -->
    <rect x="600" y="0" width="190" height="580" rx="8" fill="#1e293b" stroke="#2d2d4a" stroke-width="1"/>
    <text x="695" y="25" text-anchor="middle" fill="#0D9488" font-size="13" font-weight="600">Merienda</text>
    <line x1="610" y1="35" x2="780" y2="35" stroke="#2d2d4a" stroke-width="1"/>

    <rect x="608" y="42" width="174" height="70" rx="6" fill="#1a1a2e"/>
    <text x="616" y="60" fill="#9ca3af" font-size="11">Corn Flakes</text>
    <text x="616" y="76" fill="#6b7280" font-size="10">357 kcal/100g · 30g Desc</text>

    <rect x="608" y="120" width="174" height="70" rx="6" fill="#1a1a2e"/>
    <text x="616" y="138" fill="#9ca3af" font-size="11">Proteína en Polvo</text>
    <text x="616" y="154" fill="#6b7280" font-size="10">20g</text>

    <rect x="608" y="198" width="174" height="70" rx="6" fill="#1a1a2e"/>
    <text x="616" y="216" fill="#9ca3af" font-size="11">Frutos Secos</text>
    <text x="616" y="232" fill="#6b7280" font-size="10">15g</text>

    <rect x="608" y="276" width="174" height="50" rx="6" fill="#1a1a2e"/>
    <text x="616" y="294" fill="#9ca3af" font-size="11">Fruta</text>
    <text x="616" y="310" fill="#6b7280" font-size="10">120g</text>

    <rect x="610" y="340" width="170" height="36" rx="6" fill="#1a1a2e" stroke="#2d2d4a" stroke-width="1"/>
    <text x="695" y="364" text-anchor="middle" fill="#0D9488" font-size="12" font-weight="600">195 kcal</text>

    <!-- Col 5: Cena -->
    <rect x="800" y="0" width="190" height="580" rx="8" fill="#1e293b" stroke="#2d2d4a" stroke-width="1"/>
    <text x="895" y="25" text-anchor="middle" fill="#0D9488" font-size="13" font-weight="600">Cena</text>
    <line x1="810" y1="35" x2="980" y2="35" stroke="#2d2d4a" stroke-width="1"/>

    <rect x="808" y="42" width="174" height="90" rx="6" fill="#1a1a2e"/>
    <text x="816" y="60" fill="#9ca3af" font-size="11">Patata/Boniato</text>
    <text x="816" y="76" fill="#6b7280" font-size="10">200g Entr · 80g Desc</text>
    <rect x="812" y="84" width="50" height="20" rx="4" fill="#1a1a2e" stroke="#2d2d4a" stroke-width="1"/>
    <text x="837" y="98" text-anchor="middle" fill="#9ca3af" font-size="10">Arroz</text>

    <rect x="808" y="140" width="174" height="90" rx="6" fill="#1a1a2e"/>
    <text x="816" y="158" fill="#9ca3af" font-size="11">Pescado</text>
    <text x="816" y="174" fill="#6b7280" font-size="10">150g</text>
    <rect x="812" y="182" width="50" height="20" rx="4" fill="#1a1a2e" stroke="#2d2d4a" stroke-width="1"/>
    <text x="837" y="196" text-anchor="middle" fill="#9ca3af" font-size="10">Pollo</text>

    <rect x="808" y="238" width="174" height="70" rx="6" fill="#1a1a2e"/>
    <text x="816" y="256" fill="#9ca3af" font-size="11">Aceite de Oliva</text>
    <text x="816" y="272" fill="#6b7280" font-size="10">10g</text>

    <rect x="808" y="316" width="174" height="50" rx="6" fill="#1a1a2e"/>
    <text x="816" y="334" fill="#9ca3af" font-size="11">Verduras</text>
    <text x="816" y="350" fill="#6b7280" font-size="10">200g</text>

    <rect x="810" y="380" width="170" height="36" rx="6" fill="#1a1a2e" stroke="#2d2d4a" stroke-width="1"/>
    <text x="895" y="404" text-anchor="middle" fill="#0D9488" font-size="12" font-weight="600">445 kcal</text>
  </g>

  <!-- Use 5 meals button -->
  <rect x="370" y="650" width="180" height="36" rx="8" fill="#0D9488"/>
  <text x="460" y="673" text-anchor="middle" fill="white" font-size="13" font-weight="600">Usar estas 5 comidas</text>
</svg>