<svg xmlns="http://www.w3.org/2000/svg" viewBox="0 0 800 600" font-family="system-ui, -apple-system, sans-serif">
  <defs>
    <linearGradient id="bg" x1="0" y1="0" x2="0" y2="1">
      <stop offset="0%" stop-color="#1a1a2e"/>
      <stop offset="100%" stop-color="#16213e"/>
    </linearGradient>
  </defs>
  <rect width="800" height="600" fill="url(#bg)"/>

  <text x="20" y="36" fill="white" font-size="18" font-weight="bold">Entrenamiento de Fuerza</text>

  <!-- Workout plans -->
  <rect x="20" y="55" width="370" height="530" rx="8" fill="#1e293b" stroke="#2d2d4a" stroke-width="1"/>
  <text x="40" y="80" fill="white" font-size="14" font-weight="600">Planes de Entrenamiento</text>

  <rect x="30" y="92" width="350" height="40" rx="6" fill="#1a1a2e" stroke="#0D9488" stroke-width="1"/>
  <text x="50" y="114" fill="white" font-size="12" font-weight="bold">4x Superior/Inferior</text>
  <text x="320" y="114" fill="#0D9488" font-size="11">Activo</text>

  <rect x="30" y="140" width="350" height="40" rx="6" fill="#1a1a2e" stroke="#2d2d4a" stroke-width="1"/>
  <text x="50" y="162" fill="#9ca3af" font-size="12">3x Push/Pull/Legs</text>

  <rect x="30" y="188" width="350" height="40" rx="6" fill="#1a1a2e" stroke="#2d2d4a" stroke-width="1"/>
  <text x="50" y="210" fill="#9ca3af" font-size="12">2x Superior/Inferior</text>

  <rect x="30" y="236" width="350" height="40" rx="6" fill="#1a1a2e" stroke="#2d2d4a" stroke-width="1"/>
  <text x="50" y="258" fill="#9ca3af" font-size="12">5x Push/Pull/Legs/Upper/Lower</text>

  <rect x="30" y="284" width="350" height="40" rx="6" fill="#1a1a2e" stroke="#2d2d4a" stroke-width="1"/>
  <text x="50" y="306" fill="#9ca3af" font-size="12">6x Full Body</text>

  <!-- Active plan detail -->
  <rect x="30" y="340" width="350" height="220" rx="6" fill="#1a1a2e"/>
  <text x="50" y="365" fill="#0D9488" font-size="13" font-weight="600">4x Superior/Inferior — Días</text>
  <line x1="50" y1="375" x2="360" y2="375" stroke="#2d2d4a" stroke-width="1"/>

  <rect x="40" y="385" width="330" height="32" rx="4" fill="#1e293b"/>
  <text x="55" y="406" fill="white" font-size="11">Día 1: Superior — Empuje</text>
  <text x="320" y="406" fill="#6b7280" font-size="10">6 ejer.</text>

  <rect x="40" y="422" width="330" height="32" rx="4" fill="#1e293b"/>
  <text x="55" y="443" fill="white" font-size="11">Día 2: Inferior — Cuádriceps, Glúteos</text>
  <text x="340" y="443" fill="#6b7280" font-size="10">6 ejer.</text>

  <rect x="40" y="459" width="330" height="32" rx="4" fill="#1e293b"/>
  <text x="55" y="480" fill="white" font-size="11">Día 3: Superior — Tracción</text>
  <text x="320" y="480" fill="#6b7280" font-size="10">6 ejer.</text>

  <rect x="40" y="496" width="330" height="32" rx="4" fill="#1e293b"/>
  <text x="55" y="517" fill="white" font-size="11">Día 4: Inferior — Isquios, Core</text>
  <text x="330" y="517" fill="#6b7280" font-size="10">6 ejer.</text>

  <!-- Exercise library -->
  <rect x="410" y="55" width="370" height="240" rx="8" fill="#1e293b" stroke="#2d2d4a" stroke-width="1"/>
  <text x="430" y="80" fill="white" font-size="14" font-weight="600">Biblioteca de Ejercicios</text>
  <!-- Filter chips -->
  <rect x="430" y="92" width="60" height="22" rx="4" fill="#0D9488"/>
  <text x="460" y="107" text-anchor="middle" fill="white" font-size="10">Todos</text>
  <rect x="496" y="92" width="60" height="22" rx="4" fill="#1e293b" stroke="#2d2d4a" stroke-width="1"/>
  <text x="526" y="107" text-anchor="middle" fill="#9ca3af" font-size="10">Pecho</text>
  <rect x="562" y="92" width="60" height="22" rx="4" fill="#1e293b" stroke="#2d2d4a" stroke-width="1"/>
  <text x="592" y="107" text-anchor="middle" fill="#9ca3af" font-size="10">Espalda</text>
  <rect x="628" y="92" width="60" height="22" rx="4" fill="#1e293b" stroke="#2d2d4a" stroke-width="1"/>
  <text x="658" y="107" text-anchor="middle" fill="#9ca3af" font-size="10">Piernas</text>
  <!-- Table -->
  <rect x="430" y="122" width="330" height="20" rx="4" fill="#1a1a2e"/>
  <text x="440" y="136" fill="#6b7280" font-size="10">Ejercicio</text>
  <text x="580" y="136" fill="#6b7280" font-size="10">Grupo</text>
  <text x="660" y="136" fill="#6b7280" font-size="10">Equipo</text>
  <line x1="430" y1="144" x2="760" y2="144" stroke="#2d2d4a" stroke-width="1"/>
  <text x="440" y="162" fill="white" font-size="11">Press Banca con Barra</text>
  <text x="580" y="162" fill="#9ca3af" font-size="11">Pecho</text>
  <text x="660" y="162" fill="#9ca3af" font-size="11">Barra</text>
  <text x="440" y="182" fill="white" font-size="11">Dominadas</text>
  <text x="580" y="182" fill="#9ca3af" font-size="11">Espalda</text>
  <text x="660" y="182" fill="#9ca3af" font-size="11">Bodyweight</text>
  <text x="440" y="202" fill="white" font-size="11">Sentadilla en Multipower</text>
  <text x="580" y="202" fill="#9ca3af" font-size="11">Quads</text>
  <text x="660" y="202" fill="#9ca3af" font-size="11">Smith</text>
  <text x="440" y="222" fill="white" font-size="11">Peso Muerto Rumano</text>
  <text x="580" y="222" fill="#9ca3af" font-size="11">Isquios</text>
  <text x="660" y="222" fill="#9ca3af" font-size="11">Barra</text>
  <text x="440" y="242" fill="white" font-size="11">Curl de Bíceps</text>
  <text x="580" y="242" fill="#9ca3af" font-size="11">Bíceps</text>
  <text x="660" y="242" fill="#9ca3af" font-size="11">Mancuerna</text>

  <!-- Session logging -->
  <rect x="410" y="310" width="370" height="275" rx="8" fill="#1e293b" stroke="#2d2d4a" stroke-width="1"/>
  <text x="430" y="335" fill="white" font-size="14" font-weight="600">Registro de Sesiones</text>

  <rect x="430" y="350" width="330" height="110" rx="6" fill="#1a1a2e"/>
  <text x="450" y="372" fill="#0D9488" font-size="12" font-weight="600">Última Sesión — 19/06/2026</text>
  <line x1="450" y1="380" x2="740" y2="380" stroke="#2d2d4a" stroke-width="1"/>
  <text x="450" y="398" fill="#9ca3af" font-size="11">Rutina: 4x Superior/Inferior (Día 1)</text>
  <text x="450" y="418" fill="#9ca3af" font-size="11">Ejercicios: 6 · Volumen total: 4,850 kg</text>
  <text x="450" y="438" fill="#10b981" font-size="11">Volumen +8% vs sesión anterior ✓</text>

  <rect x="430" y="470" width="330" height="100" rx="6" fill="#1a1a2e"/>
  <text x="450" y="490" fill="white" font-size="12" font-weight="600">Progresión — Press Banca</text>
  <!-- Progression mini chart -->
  <polyline points="460,530 490,525 520,535 550,520 580,515 610,525 640,510" fill="none" stroke="#0D9488" stroke-width="2"/>
  <polyline points="460,550 490,545 520,555 550,540 580,530 610,540 640,525" fill="none" stroke="#f59e0b" stroke-width="1.5"/>
  <text x="650" y="530" fill="#0D9488" font-size="9">kg</text>
  <text x="650" y="550" fill="#f59e0b" font-size="9">RPE</text>
</svg>